<svg width="21" height="19" viewBox="0 0 21 19" fill="none" xmlns="http://www.w3.org/2000/svg">
<path d="M0.0673828 1.36816C0.0673828 1.15137 0.146484 0.960938 0.304688 0.796875C0.46875 0.632812 0.662109 0.550781 0.884766 0.550781H3.89062C4.38281 0.550781 4.72266 0.647461 4.91016 0.84082C5.10352 1.02832 5.22656 1.30957 5.2793 1.68457L5.42871 2.65137H19.5264C19.8311 2.65137 20.0654 2.7334 20.2295 2.89746C20.3994 3.05566 20.4844 3.25781 20.4844 3.50391C20.4844 3.55664 20.4814 3.61816 20.4756 3.68848C20.4697 3.75293 20.4609 3.81445 20.4492 3.87305L19.79 8.28516C19.6904 8.95898 19.459 9.48633 19.0957 9.86719C18.7324 10.248 18.2139 10.4385 17.54 10.4385H6.55371L6.68555 11.3438C6.71484 11.5723 6.79395 11.7568 6.92285 11.8975C7.05762 12.0381 7.23047 12.1084 7.44141 12.1084H17.4785C17.6836 12.1084 17.8623 12.1816 18.0146 12.3281C18.1729 12.4688 18.252 12.6533 18.252 12.8818C18.252 13.1045 18.1729 13.2891 18.0146 13.4355C17.8623 13.582 17.6836 13.6553 17.4785 13.6553H7.24805C6.57422 13.6553 6.05566 13.4648 5.69238 13.084C5.33496 12.7031 5.10645 12.1846 5.00684 11.5283L3.64453 2.20312H0.884766C0.662109 2.20312 0.46875 2.12109 0.304688 1.95703C0.146484 1.79297 0.0673828 1.59668 0.0673828 1.36816ZM6.43066 16.5293C6.43066 16.248 6.49805 15.9902 6.63281 15.7559C6.77344 15.5273 6.95801 15.3428 7.18652 15.2021C7.4209 15.0674 7.67871 15 7.95996 15C8.38184 15 8.74219 15.1465 9.04102 15.4395C9.33984 15.7383 9.48926 16.1016 9.48926 16.5293C9.48926 16.9512 9.33984 17.3086 9.04102 17.6016C8.74219 17.9004 8.38184 18.0498 7.95996 18.0498C7.67871 18.0498 7.4209 17.9824 7.18652 17.8477C6.95801 17.7129 6.77344 17.5283 6.63281 17.2939C6.49805 17.0654 6.43066 16.8105 6.43066 16.5293ZM14.5605 16.5293C14.5605 16.248 14.6279 15.9902 14.7627 15.7559C14.9033 15.5273 15.0879 15.3428 15.3164 15.2021C15.5508 15.0674 15.8086 15 16.0898 15C16.5176 15 16.8779 15.1465 17.1709 15.4395C17.4697 15.7383 17.6191 16.1016 17.6191 16.5293C17.6191 16.9512 17.4697 17.3086 17.1709 17.6016C16.8779 17.9004 16.5176 18.0498 16.0898 18.0498C15.668 18.0498 15.3076 17.9004 15.0088 17.6016C14.71 17.3086 14.5605 16.9512 14.5605 16.5293Z" fill="#E46F57"/>
</svg>
