<svg width="25" height="15" viewBox="0 0 25 15" fill="none" xmlns="http://www.w3.org/2000/svg">
<path d="M0.898438 14.2373V1.08008C0.898438 0.851562 0.96582 0.669922 1.10059 0.535156C1.24121 0.394531 1.42578 0.324219 1.6543 0.324219H23.3457C23.5742 0.324219 23.7559 0.394531 23.8906 0.535156C24.0312 0.669922 24.1016 0.851562 24.1016 1.08008V14.2373C24.1016 14.46 24.0312 14.6416 23.8906 14.7822C23.7559 14.9229 23.5742 14.9932 23.3457 14.9932H1.6543C1.42578 14.9932 1.24121 14.9229 1.10059 14.7822C0.96582 14.6416 0.898438 14.46 0.898438 14.2373ZM2.72656 12.6729C2.72656 13.001 2.8877 13.165 3.20996 13.165H21.79C22.1123 13.165 22.2734 13.001 22.2734 12.6729V2.65332C22.2734 2.3252 22.1123 2.16113 21.79 2.16113H3.20996C2.8877 2.16113 2.72656 2.3252 2.72656 2.65332V12.6729ZM3.69336 11.9961V3.32129C3.69336 3.19238 3.76074 3.12793 3.89551 3.12793H10.4521C10.0303 3.58496 9.69922 4.2002 9.45898 4.97363C9.21875 5.74707 9.09863 6.6377 9.09863 7.64551C9.09863 8.65332 9.21875 9.54688 9.45898 10.3262C9.70508 11.1055 10.042 11.7266 10.4697 12.1895H3.89551C3.76074 12.1895 3.69336 12.125 3.69336 11.9961ZM10.2148 7.64551C10.2148 6.7666 10.3086 6.00488 10.4961 5.36035C10.6836 4.70996 10.9473 4.20605 11.2871 3.84863C11.627 3.49121 12.0195 3.3125 12.4648 3.3125C12.9277 3.3125 13.335 3.49121 13.6865 3.84863C14.0381 4.20605 14.3105 4.70996 14.5039 5.36035C14.6973 6.00488 14.7939 6.7666 14.7939 7.64551C14.7939 8.52441 14.6973 9.28906 14.5039 9.93945C14.3105 10.5898 14.0381 11.0938 13.6865 11.4512C13.335 11.8086 12.9277 11.9873 12.4648 11.9873C12.0195 11.9873 11.627 11.8086 11.2871 11.4512C10.9473 11.0938 10.6836 10.5898 10.4961 9.93945C10.3086 9.28906 10.2148 8.52441 10.2148 7.64551ZM14.5127 12.1895C14.9463 11.7266 15.2861 11.1055 15.5322 10.3262C15.7783 9.54688 15.9014 8.65332 15.9014 7.64551C15.9014 6.6377 15.7783 5.74707 15.5322 4.97363C15.292 4.2002 14.9551 3.58496 14.5215 3.12793H21.1045C21.2334 3.12793 21.2979 3.19238 21.2979 3.32129V11.9961C21.2979 12.125 21.2334 12.1895 21.1045 12.1895H14.5127Z" fill="#E46F57"/>
</svg>
