<svg width="21" height="21" viewBox="0 0 21 21" fill="none" xmlns="http://www.w3.org/2000/svg">
<path d="M17.8125 3.87988C18.7559 3.87988 19.4707 4.12012 19.957 4.60059C20.4492 5.08105 20.6953 5.79297 20.6953 6.73633V15.8242C20.6953 16.7617 20.4609 17.4707 19.9922 17.9512C19.5234 18.4375 18.8701 18.6807 18.0322 18.6807H9.77051C10.0225 18.2471 10.2217 17.7812 10.3682 17.2832C10.5146 16.791 10.5879 16.2812 10.5879 15.7539C10.5879 14.9629 10.4355 14.2188 10.1309 13.5215C9.83203 12.8242 9.41602 12.2119 8.88281 11.6846C8.34961 11.1514 7.73438 10.7354 7.03711 10.4365C6.33984 10.1318 5.5957 9.97949 4.80469 9.97949V6.73633C4.80469 5.79297 5.04785 5.08105 5.53418 4.60059C6.02051 4.12012 6.73828 3.87988 7.6875 3.87988H17.8125ZM9.10254 4.24902C9.10254 3.56934 9.26074 2.95703 9.57715 2.41211C9.89941 1.86719 10.333 1.43359 10.8779 1.11133C11.4287 0.789062 12.0527 0.62793 12.75 0.62793C13.4414 0.62793 14.0625 0.789062 14.6133 1.11133C15.1641 1.43359 15.5977 1.86719 15.9141 2.41211C16.2305 2.95703 16.3887 3.56934 16.3887 4.24902L14.7188 4.25781C14.7188 3.84766 14.6367 3.4873 14.4727 3.17676C14.3086 2.86035 14.0771 2.61426 13.7783 2.43848C13.4854 2.25684 13.1426 2.16602 12.75 2.16602C12.3574 2.16602 12.0117 2.25684 11.7129 2.43848C11.4199 2.61426 11.1885 2.86035 11.0186 3.17676C10.8545 3.4873 10.7725 3.84766 10.7725 4.25781L9.10254 4.24902ZM4.81348 20.2803C4.19238 20.2803 3.60938 20.1631 3.06445 19.9287C2.51953 19.6943 2.03906 19.3662 1.62305 18.9443C1.20703 18.5283 0.881836 18.0479 0.647461 17.5029C0.407227 16.958 0.287109 16.375 0.287109 15.7539C0.287109 15.1328 0.407227 14.5498 0.647461 14.0049C0.881836 13.46 1.20703 12.9795 1.62305 12.5635C2.03906 12.1416 2.51953 11.8135 3.06445 11.5791C3.60938 11.3447 4.19238 11.2275 4.81348 11.2275C5.43457 11.2275 6.01758 11.3447 6.5625 11.5791C7.10742 11.8135 7.58789 12.1387 8.00391 12.5547C8.41992 12.9707 8.74512 13.4541 8.97949 14.0049C9.21973 14.5498 9.33984 15.1328 9.33984 15.7539C9.33984 16.3691 9.21973 16.9492 8.97949 17.4941C8.74512 18.0449 8.41699 18.5283 7.99512 18.9443C7.5791 19.3604 7.0957 19.6855 6.54492 19.9199C6 20.1602 5.42285 20.2803 4.81348 20.2803ZM4.80469 18.6191C4.98633 18.6191 5.12988 18.5635 5.23535 18.4521C5.34668 18.3408 5.40234 18.1973 5.40234 18.0215V16.3516H7.07227C7.24805 16.3516 7.3916 16.2959 7.50293 16.1846C7.61426 16.0791 7.66992 15.9355 7.66992 15.7539C7.66992 15.5723 7.61426 15.4287 7.50293 15.3232C7.3916 15.2119 7.24805 15.1562 7.07227 15.1562H5.40234V13.4863C5.40234 13.3105 5.34668 13.167 5.23535 13.0557C5.12988 12.9443 4.98633 12.8887 4.80469 12.8887C4.62305 12.8887 4.47656 12.9443 4.36523 13.0557C4.25977 13.167 4.20703 13.3105 4.20703 13.4863V15.1562H2.53711C2.36133 15.1562 2.21777 15.2119 2.10645 15.3232C1.99512 15.4287 1.93945 15.5723 1.93945 15.7539C1.93945 15.9355 1.99512 16.0791 2.10645 16.1846C2.21777 16.2959 2.36133 16.3516 2.53711 16.3516H4.20703V18.0215C4.20703 18.1973 4.25977 18.3408 4.36523 18.4521C4.47656 18.5635 4.62305 18.6191 4.80469 18.6191Z" fill="#E46F57"/>
</svg>
